<svg width="36" height="36" viewBox="0 0 36 36" fill="none" xmlns="http://www.w3.org/2000/svg">
<path d="M29.9999 0H5.99994C4.40864 0 2.88252 0.632141 1.7573 1.75736C0.63208 2.88258 -6.10352e-05 4.4087 -6.10352e-05 6V30C-6.10352e-05 31.5913 0.63208 33.1174 1.7573 34.2426C2.88252 35.3679 4.40864 36 5.99994 36H29.9999C31.5912 36 33.1174 35.3679 34.2426 34.2426C35.3678 33.1174 35.9999 31.5913 35.9999 30V6C35.9999 4.4087 35.3678 2.88258 34.2426 1.75736C33.1174 0.632141 31.5912 0 29.9999 0ZM31.9999 30C31.9999 30.5304 31.7892 31.0391 31.4142 31.4142C31.0391 31.7893 30.5304 32 29.9999 32H5.99994C5.46951 32 4.9608 31.7893 4.58573 31.4142C4.21065 31.0391 3.99994 30.5304 3.99994 30V6C3.99994 5.46957 4.21065 4.96086 4.58573 4.58579C4.9608 4.21071 5.46951 4 5.99994 4H29.9999C30.5304 4 31.0391 4.21071 31.4142 4.58579C31.7892 4.96086 31.9999 5.46957 31.9999 6V30Z" fill="#231F20" fill-opacity="0.77"/>
<path d="M24 16H20V12C20 11.4696 19.7893 10.9609 19.4142 10.5858C19.0391 10.2107 18.5304 10 18 10C17.4696 10 16.9609 10.2107 16.5858 10.5858C16.2107 10.9609 16 11.4696 16 12V16H12C11.4696 16 10.9609 16.2107 10.5858 16.5858C10.2107 16.9609 10 17.4696 10 18C10 18.5304 10.2107 19.0391 10.5858 19.4142C10.9609 19.7893 11.4696 20 12 20H16V24C16 24.5304 16.2107 25.0391 16.5858 25.4142C16.9609 25.7893 17.4696 26 18 26C18.5304 26 19.0391 25.7893 19.4142 25.4142C19.7893 25.0391 20 24.5304 20 24V20H24C24.5304 20 25.0391 19.7893 25.4142 19.4142C25.7893 19.0391 26 18.5304 26 18C26 17.4696 25.7893 16.9609 25.4142 16.5858C25.0391 16.2107 24.5304 16 24 16Z" fill="#231F20" fill-opacity="0.77"/>
</svg>
